<?xml version="1.0" encoding="UTF-8" standalone="no"?>
<svg
   viewBox="0 0 864 787.6"
   version="1.1"
   id="svg54"
   sodipodi:docname="CubHubLogo2Rv2.svg"
   inkscape:version="1.2 (dc2aeda, 2022-05-15)"
   xmlns:inkscape="http://www.inkscape.org/namespaces/inkscape"
   xmlns:sodipodi="http://sodipodi.sourceforge.net/DTD/sodipodi-0.dtd"
   xmlns="http://www.w3.org/2000/svg"
   xmlns:svg="http://www.w3.org/2000/svg">
  <defs
     id="defs58" />
  <sodipodi:namedview
     id="namedview56"
     pagecolor="#ffffff"
     bordercolor="#000000"
     borderopacity="0.25"
     inkscape:showpageshadow="2"
     inkscape:pageopacity="0.0"
     inkscape:pagecheckerboard="0"
     inkscape:deskcolor="#d1d1d1"
     showgrid="false"
     inkscape:zoom="1.3039614"
     inkscape:cx="427.15987"
     inkscape:cy="393.79999"
     inkscape:window-width="1390"
     inkscape:window-height="1205"
     inkscape:window-x="0"
     inkscape:window-y="25"
     inkscape:window-maximized="0"
     inkscape:current-layer="svg54" />
  <path
     d="M820.4,441.2c0.1,0.4,0.3,1.1,0.1,1.2c-0.6,0.4-0.7-0.2-0.8-0.6C819.9,441.6,820.1,441.4,820.4,441.2z"
     id="path4" />
  <path
     d="M162,609.5c0.3,0.4,0.6,0.7,0.9,1.1C162.6,610.2,162.3,609.8,162,609.5z"
     id="path6" />
  <path
     d="M779.3,390.3c0.6,0.7,0.9,1.4,0.2,2.2c-0.3-0.5-0.6-1-0.9-1.5C778.8,390.8,779,390.5,779.3,390.3z"
     id="path8" />
  <path
     d="M561.1,670.8c-0.3,0.2-0.7,0.3-1,0.5c0-0.4,0-0.8,0-1.1C560.4,670.4,560.8,670.6,561.1,670.8z"
     id="path10" />
  <path
     d="M514.3,676.3c-0.4,0-1.1,0.2-1.3,0C512.6,675.8,514.1,675.9,514.3,676.3z"
     id="path12" />
  <path
     d="M354.6,677.2c-0.1,0.1-0.8-0.1-1.2-0.2C353.6,676.8,355,676.7,354.6,677.2z"
     id="path14" />
  <path
     d="M459.3,705.8c-0.2-0.3-0.4-0.6-0.5-0.8c0.1-0.1,0.3-0.1,0.4-0.2c0,0.3,0,0.6,0,0.9   C459.2,705.7,459.3,705.8,459.3,705.8z"
     id="path16" />
  <path
     d="M772.8,144.9C773,145.1,772.8,145.1,772.8,144.9C772.8,144.9,772.8,144.9,772.8,144.9z"
     id="path18" />
  <path
     d="M427.3,89.5c-0.4,0-1.1,0.3-1.2,0.1c-0.4-0.5,0.1-0.7,0.5-1C426.9,89,427.1,89.2,427.3,89.5z"
     id="path20" />
  <path
     d="M410,709.4c-0.2,0-0.5,0-0.7,0.1c0.1-0.2,0.1-0.4,0.2-0.6c0.2,0.2,0.3,0.4,0.5,0.7   C409.9,709.5,410,709.4,410,709.4z"
     id="path22" />
  <path
     d="M550.9,711.6c-0.3,0.2-0.7,0.5-1,0.7c-0.1-0.1-0.2-0.2-0.2-0.4C550,711.8,550.4,711.6,550.9,711.6   C550.8,711.5,550.9,711.6,550.9,711.6z"
     id="path24" />
  <path
     d="M301.9,711.5c0.1,0.1,0.3,0.1,0.4,0.2C302.2,711.7,302,711.6,301.9,711.5   C301.9,711.6,301.9,711.5,301.9,711.5z"
     id="path26" />
  <path
     sd="M427.9,739.5c-0.1,0.1-0.1,0.2-0.2,0.4C427.8,739.8,427.8,739.6,427.9,739.5   C427.9,739.5,427.9,739.5,427.9,739.5z"
     id="path28" />
  <path
     d="M360.4,303.3c0.5,0.7,0.9,1.4,0.1,2.2c-0.2-0.6-0.4-1.1-0.6-1.7C360,303.6,360.2,303.5,360.4,303.3z"
     id="path38" />
  <path
     d="M660.5,438.2c0.4,0.7,0.9,1.7,0.2,2c-1.2,0.5-0.7-0.8-0.9-1.4C660,438.6,660.2,438.4,660.5,438.2z"
     id="path40" />
  <path
     d="M631.9,429.7c0.2,0.2,0.4,0.3,0.7,0.5c-0.1,0.1-0.3,0.2-0.4,0.3c-0.1-0.2-0.3-0.4-0.4-0.6   C631.7,429.8,631.9,429.7,631.9,429.7z"
     id="path42" />
  <path
     d="M335.5,647.5c-0.1-0.1-0.2-0.1-0.3-0.2c0.1-0.2,0.2-0.3,0.3-0.5C335.9,647.1,335.9,647.3,335.5,647.5z"
     id="path44" />
  <path
     d="M238.4,419.2c0.4-0.1,0.8-0.1,1.1-0.2c-0.2,0.3-0.3,0.6-0.5,0.9C238.8,419.6,238.6,419.4,238.4,419.2z"
     id="path50" />
  <g
     id="g904"
     transform="matrix(1.1095925,0,0,1.1027493,-46.939632,-35.556347)">
    <path
       d="m 810.1,441.8 c -6,-5.3 -39.3,-40.4 -45.1,-37.3 -0.1,0 8.6,53 8.8,58.3 2,38.1 -4.9,79.2 -19.7,114.3 -5.8,-12.1 -11.5,-23.9 -17.8,-36.9 -6.2,19 -12.6,36.3 -24.5,52.7 -5.6,7.6 -11.7,14.8 -18,21.8 -2.1,2.4 -18.9,17 -17.9,19.9 -1.6,1.1 -3.3,2.2 -4.9,3.3 -12.7,9.2 -25.1,18.7 -38.7,26.7 -13.1,7.7 -26.9,11.8 -41,17.1 -13,4.9 -25.3,13.9 -39.5,14.7 -7.9,0.4 -10.8,0.6 -18.4,4.6 -6,3.1 -13.2,8.1 -20.2,8.5 3.9,-5.9 7.7,-11.4 11.4,-18.8 -14.4,7.5 -26.9,15.1 -42.4,20.2 -15.9,5.3 -29.7,13.9 -46.5,15.8 6.8,-7.1 12.8,-13.9 18.3,-21 0,-0.3 0,-0.6 0,-0.9 -0.1,0.1 -0.3,0.1 -0.4,0.2 0.2,0.3 0.4,0.6 0.5,0.8 -2.9,-2.9 -18.9,13.8 -23.1,15.4 -8.4,3.3 -18.6,-7 -25.7,-11.7 -0.2,-0.2 -0.3,-0.4 -0.5,-0.7 -0.1,0.2 -0.1,0.4 -0.2,0.6 0.2,0 0.5,0 0.7,-0.1 2.7,6.8 8.6,11.1 13.4,17.1 -12.3,-0.7 -21.8,-4.2 -33,-8.9 -8.5,-3.5 -20.9,-10.4 -30,-10.8 -6.9,-0.3 -7.7,1 -15.3,-2.5 -6.2,-2.8 -19,-14 -25.3,-13.5 3.4,6 6.7,11.6 10.5,18.4 -8.7,-3.5 -16.6,-8 -24.9,-12.4 -9.5,-5 -18.8,-7.1 -29,-10 -22,-6.3 -42.9,-19.5 -62,-31.8 -0.1,-0.3 -0.2,-0.4 -0.5,-0.3 -2.2,-2.3 -4.9,-4 -7.5,-5.7 0,-0.2 -0.2,-0.3 -0.4,-0.3 -0.6,-0.7 -1.2,-1.4 -2.2,-1.4 v 0 c -0.6,-1.4 -1.7,-2 -3.1,-1.9 v 0 c -6.1,-7.1 -13.6,-12.7 -20.3,-19.2 -4.8,-5.3 -9.5,-10.5 -14.3,-15.8 0,0 0,0 0,0 -0.3,-0.4 -0.6,-0.7 -0.9,-1.1 -13.2,-18.4 -26.9,-35.9 -34.5,-57.5 -3.4,-9.7 -3.7,-13.1 -9,-2.3 -3,6.2 -8.6,24.2 -14.3,27.6 C 82,523.5 78,468.5 89.7,411.8 79.8,422.8 70,433.9 60.1,445 c -0.3,-0.2 -0.7,-0.5 -1,-0.7 C 74.6,394.4 95.6,347.2 128.2,305.5 87.3,294.5 54.7,263.6 45.8,221 38,183.6 49.7,143.3 78.2,117.8 c 31.6,-28.3 79.4,-32.4 116.1,-11.6 9,5.1 17.4,11.8 24.4,19.4 6.2,6.8 9.5,19.3 18.5,13.8 19,-11.7 35.5,-24.8 56.5,-33.4 24.5,-10 48.9,-14.1 75.1,-16.3 26.2,-2.2 47.8,-22 63.1,-42.2 0.9,15.4 -3.7,28.4 -10,41 -0.4,0.2 -0.9,0.5 -0.5,1 0.2,0.2 0.8,0 1.2,-0.1 18.5,-8.6 35.2,-19.4 45,-38.5 4.7,6.6 4,19.8 -1.6,31.4 6.2,-1.6 14.4,-10.7 28.4,-31.9 2.1,8 2.8,16.4 1,24.5 -1.8,8.1 -5,8.8 1.6,11.9 5.7,2.7 17.1,1.5 23.6,2.8 8.6,1.7 17.1,3.8 25.4,6.4 31.6,9.5 60.5,25.5 86,46.4 23.2,-29.7 52,-51.2 91.3,-49.9 33.7,1.2 65.6,20.3 82.4,49.8 17.8,31.3 19.1,70 4.4,102.9 -14,31.4 -41.5,49.6 -73.1,59 32.6,40.1 56.9,87.9 73.9,136.7 -0.3,0.5 -0.6,0.7 -0.8,0.9 z M 769.5,391 c 0.3,0.5 0.6,1 0.9,1.5 0.7,-0.8 0.4,-1.5 -0.2,-2.2 -9,-18.2 -18.4,-36 -29.2,-53.1 -11.1,-17.6 -25.1,-33.4 -35.9,-51.1 13.9,-5.3 29.2,-5.2 43.1,-11.6 11.2,-5.1 21.4,-12.4 29.1,-22.2 8.6,-10.8 14.2,-24.3 15.4,-38.2 0.9,-10.1 -1.5,-31.9 -6.7,-43.9 -5.2,-12 -8.7,-18.4 -19.9,-26.9 -11.2,-8.5 -50.9,-19.4 -70.9,-16.3 -11.8,1.8 -23.2,5.7 -33.3,12.1 -4.8,3.1 -8.9,6.8 -13.1,10.6 -5.5,4.8 -5.7,4.8 -12,1.3 -43.1,-23.9 -92.5,-44.8 -142.5,-45.8 -22.4,-0.4 -45.8,2.1 -65.5,13.8 -7.3,4.4 -6.8,5.5 -14.4,1.8 -4.9,-2.4 -9.5,-4.8 -14.7,-6.6 -10.9,-3.7 -22.3,-5.3 -33.8,-5.4 -49.3,-0.1 -97.2,20 -139.8,43.1 -6.4,3.4 -6.3,3.7 -11.4,-1.6 -3.7,-3.7 -7.2,-7.5 -11.2,-10.9 -8.1,-6.9 -17.1,-12.7 -26.9,-16.8 -19.8,-8.3 -45,-10.4 -65.5,-3.7 6.1,2.4 12.4,2 18.4,4.8 -22.9,3.8 -32.8,2.8 -55,33.2 -22.2,30.4 -3.3,80.6 18.5,105.4 17.2,19.5 42.9,25.3 67.9,24.5 -24.3,31.1 -49.7,63.5 -64.5,100.6 9.2,-8.9 18.5,-17.8 27.7,-26.7 0.4,0.2 0.7,0.4 1.1,0.6 -13.7,32.5 -23,69.2 -22.2,104.7 0.3,14.1 1.3,28.3 3,42.4 0.9,7.5 1,20.2 6,26.5 8.3,-13.4 13.7,-28 19.5,-42.6 4.5,29.6 11.7,58.1 26.4,85.4 3.3,-14.3 6.4,-27.3 9.4,-40.3 13.1,36.6 24.2,69 55.3,94.3 15.3,12.5 33,21.7 51,29.3 5.2,2.2 19.7,10.9 24.6,9.6 5.4,-1.4 -3.9,-21.6 -5.2,-25.8 17.2,14.3 97.2,58.3 130.2,60.9 2.3,1.2 6.9,1 8.6,0 20.3,-11.6 115.3,-46.6 132.1,-62 -2.5,10 -6.9,18 -10.1,26.3 0,0.4 0,0.8 0,1.1 0.3,-0.2 0.7,-0.3 1,-0.5 32.8,-9.4 66.5,-25.1 91.1,-49.5 11,-11 20.2,-23.7 27.2,-37.6 7.4,-14.8 8.7,-32.7 16.4,-46.8 3.6,14.5 7.2,28.6 11,43.9 13.6,-28.8 20.9,-58.1 25.6,-88.2 7,14.4 12.4,29.1 21.5,42.5 15.8,-61.4 8.5,-119.9 -16.2,-176.9 13.9,9.1 25,22.9 38.1,33 z"
       id="path2" />
    <path
       d="m 295.8,503.8 c -12.3,-43.3 19.3,-78.6 45.8,-108.9 26.4,-30.1 52,-55.6 94.6,-53.8 39.6,1.7 61.9,28.8 87.3,55.4 13.7,14.4 28,29.3 37.9,46.7 11,19.6 10.3,36.8 8.6,58.4 -10.3,32.2 -41.4,36 -70.5,27 -13.6,-4.2 -26.4,-11.6 -37.5,-20.4 -5.9,-4.6 -11.3,-9.7 -16.4,-15.2 -2.5,-2.7 -8.9,-13.9 -12.6,-13.9 -3.3,0 -12,13.2 -14.1,15.4 -5,5.3 -10.4,10.3 -16.3,14.7 -11.7,8.9 -25.1,15.3 -39.2,19.5 -12.8,3.8 -30.1,8.1 -43,2.7 -12,-5 -20.1,-15.8 -24.6,-27.6 z m 177.6,-70.1 c 15.2,0 27.8,-10.1 25.4,-26.4 -2.3,-15.5 -16.3,-23.8 -30.3,-27.5 -17.5,-4.6 -37.9,-3.7 -55.9,-3 -15.2,0.6 -31.7,1.2 -41.4,14.8 -8.6,12 -8.6,29.5 3.9,39 6.4,4.9 11.8,3 19,4 7.3,1 8.4,5.2 12.9,10.3 8.8,9.9 20.3,15.2 33.6,12.1 6.6,-1.5 11.3,-4.7 15.9,-9.5 4.1,-4.3 9.3,-16.5 16.9,-13.8 z"
       id="path30" />
    <path
       d="M 549.7,541.9 C 538,571.4 529,608.4 508.2,633 489.5,655 460,663.5 432,663.3 c -26.6,-0.1 -53.7,-7.7 -72,-28.1 -21.7,-24.3 -30,-61.9 -42,-91.5 4.2,0 6.9,1.1 12.2,2 1.3,0.5 1.6,1.8 2.6,2.5 0.6,1.5 1.1,3.1 1.8,4.6 7.3,15.8 15,31.5 21.9,47.4 9.3,21.4 25.8,34.9 47.4,41.7 16.1,5 32.9,4.2 49.5,1.8 25.2,-3.7 43.7,-16.9 55.1,-39.5 9,-17.8 17,-36 25.4,-54.1 0.6,-1.3 1.4,-2.7 1.2,-4.3 4.8,-1.2 10,-1.3 14.6,-3.9 z"
       id="path32" />
    <path
       d="m 629.3,356.7 c -3.1,-15.1 -5.7,-29.5 -18.7,-39.4 -11.1,-8.5 -26.5,-10.5 -40,-7.5 -29,6.6 -38.7,39.1 -34.4,65.5 -7.8,-6.7 -18.3,-7.9 -23.7,-16.8 -4.7,-7.6 0.3,-16.8 3.3,-24.6 9,-23.8 27.8,-41.4 53.4,-45.4 22,-3.5 41.9,5.1 56.1,22 6.1,7.1 11.3,15.6 14.1,24.6 2,6.4 0.3,20.6 -10.1,21.6 z"
       id="path34" />
    <path
       d="m 327.3,374.4 c 6.6,-30.5 -9.9,-66.8 -44.4,-67.2 -29.5,-0.3 -46.4,24 -47.1,51.5 -9.9,-9.5 -14.7,-8.6 -10.9,-21.5 3.2,-11 8.1,-21.5 15.9,-29.9 13.5,-14.7 34,-22 53.8,-19.2 20.2,2.8 37.3,15.7 47.4,33.1 4.5,7.8 13.5,25 11.2,34.1 -2.2,8.8 -19.1,13.1 -25.9,19.1 z"
       id="path36" />
    <path
       d="m 584.9,331.8 c 17.3,0.1 16.3,25.2 -0.2,25 -16.3,-0.1 -17.1,-25.1 0.2,-25 z"
       id="path46" />
    <path
       d="m 283,330.8 c 17.4,0 16.6,25.7 -0.6,25 -16.2,-0.7 -16.5,-25 0.6,-25 z"
       id="path48" />
    <path
       d="m 395.5,546.2 c 2.2,12.8 -1.6,40.5 11.9,47.7 7.2,3.8 18.6,1.7 26.5,1.7 7.7,0 17.6,1.7 24.8,-1.7 14.6,-6.8 9.9,-27.6 11.9,-40.5 1.5,-9.6 2.4,-6.1 7.1,0.7 4.6,6.7 9.5,13.4 11.9,21.3 13.9,46.2 -48.6,42.9 -75.6,42.1 -15.2,-0.5 -29.1,-6.4 -35.4,-21.3 -8.1,-18.9 7.1,-35.2 16.9,-50 z"
       id="path52" />
  </g>
</svg>
