<?xml version="1.0" encoding="UTF-8"?>
<svg id="Layer_1" data-name="Layer 1" xmlns="http://www.w3.org/2000/svg" viewBox="0 0 864 787.57">
  <defs>
    <style>
      .cls-1 {
        fill: none;
      }
    </style>
  </defs>
  <path class="cls-1" d="m810.12,441.85c-6.03-5.31-39.27-40.36-45.05-37.28-.06.03,8.56,53.04,8.85,58.29,2.04,38.12-4.86,79.18-19.74,114.31-5.84-12.12-11.54-23.94-17.8-36.91-6.23,19.03-12.56,36.35-24.45,52.66-5.57,7.63-11.71,14.8-18.01,21.82-2.11,2.36-18.92,17.04-17.94,19.87-1.65,1.11-3.3,2.22-4.95,3.33-12.68,9.23-25.15,18.74-38.68,26.68-13.15,7.71-26.89,11.8-41.01,17.09-13.02,4.87-25.29,13.93-39.48,14.71-7.87.43-10.85.64-18.41,4.6-6.02,3.15-13.23,8.12-20.22,8.54,3.88-5.88,7.73-11.44,11.39-18.8-14.41,7.47-26.86,15.05-42.41,20.21-15.86,5.26-29.65,13.86-46.47,15.8,6.84-7.09,12.82-13.85,18.31-21.04,0-.32,0-.63.02-.94-.13.05-.27.1-.4.15.18.28.36.56.54.85-2.95-2.87-18.9,13.77-23.11,15.43-8.39,3.32-18.58-7.02-25.72-11.67-.16-.22-.32-.44-.48-.66-.06.21-.11.42-.17.63l.73-.07c2.68,6.83,8.63,11.1,13.45,17.13-12.34-.74-21.82-4.23-33.04-8.92-8.46-3.53-20.94-10.38-30.03-10.77-6.89-.3-7.65,1.02-15.32-2.47-6.2-2.82-19.03-13.99-25.33-13.53,3.45,6,6.65,11.59,10.54,18.36-8.71-3.55-16.63-8.02-24.93-12.42-9.49-5.03-18.79-7.06-28.99-9.99-21.96-6.3-42.86-19.51-62.04-31.76-.06-.26-.22-.37-.49-.32-2.2-2.31-4.87-3.96-7.53-5.65-.04-.22-.17-.32-.39-.29-.57-.75-1.22-1.38-2.23-1.44l.04.04c-.61-1.36-1.66-1.97-3.12-1.89l.02.02c-6.09-7.11-13.6-12.68-20.26-19.17-4.77-5.26-9.54-10.52-14.31-15.79,0,0-.03-.04-.03-.04-.31-.36-.62-.73-.93-1.09-13.17-18.4-26.86-35.87-34.45-57.52-3.4-9.69-3.73-13.15-9.04-2.28-3.03,6.2-8.55,24.23-14.34,27.62-20.73-53.83-24.74-108.78-13-165.53-9.87,11.09-19.74,22.17-29.61,33.26l-1.02-.71c15.49-49.93,36.49-97.09,69.07-138.77-40.87-10.99-73.5-41.89-82.36-84.45-7.78-37.38,3.87-77.67,32.41-103.18,31.61-28.26,79.43-32.35,116.11-11.59,9.03,5.11,17.37,11.77,24.43,19.43,6.24,6.77,9.49,19.33,18.46,13.8,19.03-11.73,35.51-24.77,56.5-33.37,24.49-10.04,48.93-14.1,75.07-16.29,26.2-2.19,47.76-22.01,63.11-42.18.86,15.41-3.67,28.4-9.98,40.97-.4.21-.94.46-.53.95.15.19.81-.05,1.23-.09,18.53-8.57,35.17-19.4,44.97-38.47,4.71,6.59,4,19.81-1.61,31.36,6.17-1.58,14.35-10.73,28.41-31.93,2.09,8.04,2.81,16.37,1,24.52-1.79,8.08-5.03,8.8,1.55,11.95,5.72,2.73,17.09,1.55,23.6,2.81,8.57,1.67,17.07,3.85,25.44,6.36,31.57,9.49,60.46,25.55,86.04,46.45,23.18-29.65,52.02-51.2,91.26-49.85,33.68,1.16,65.61,20.3,82.4,49.81,17.81,31.3,19.08,70.04,4.42,102.93-13.99,31.38-41.45,49.56-73.14,59,32.57,40.11,56.93,87.9,73.88,136.74-.24.19-.47.4-.69.62Zm-40.63-50.87c.3.51.6,1.02.89,1.53.69-.79.42-1.49-.17-2.17-9.02-18.17-18.37-35.96-29.19-53.12-11.11-17.61-25.14-33.44-35.94-51.13,13.86-5.26,29.16-5.17,43.12-11.56,11.18-5.12,21.38-12.45,29.09-22.18,8.56-10.82,14.2-24.34,15.44-38.16.91-10.1-1.49-31.91-6.72-43.91-5.23-12-8.65-18.45-19.86-26.92-11.21-8.48-50.92-19.36-70.85-16.25-11.76,1.84-23.22,5.69-33.32,12.15-4.8,3.07-8.85,6.84-13.13,10.56-5.51,4.79-5.72,4.77-12.01,1.29-43.13-23.86-92.54-44.81-142.47-45.81-22.45-.45-45.83,2.15-65.46,13.83-7.35,4.37-6.82,5.46-14.38,1.76-4.89-2.4-9.49-4.84-14.69-6.63-10.89-3.74-22.29-5.33-33.76-5.36-49.26-.14-97.24,20.04-139.84,43.08-6.36,3.44-6.25,3.66-11.39-1.6-3.65-3.74-7.17-7.54-11.15-10.94-8.1-6.91-17.13-12.74-26.94-16.83-19.82-8.27-44.95-10.42-65.51-3.7,6.06,2.39,12.39,2.03,18.43,4.83-22.93,3.79-32.78,2.83-55.03,33.25-22.24,30.42-3.33,80.62,18.53,105.36,17.25,19.53,42.93,25.3,67.9,24.49-24.29,31.06-49.72,63.52-64.47,100.58,9.24-8.91,18.48-17.82,27.73-26.73.35.19.7.39,1.05.58-13.69,32.52-23,69.2-22.21,104.74.31,14.13,1.27,28.32,2.96,42.35.91,7.53.95,20.22,5.96,26.5,8.32-13.36,13.72-28.01,19.49-42.64,4.46,29.6,11.67,58.11,26.37,85.42,3.35-14.32,6.39-27.34,9.43-40.35,13.07,36.6,24.16,68.99,55.26,94.35,15.28,12.46,32.99,21.71,51.04,29.33,5.24,2.22,19.73,10.93,24.55,9.65,5.38-1.43-3.89-21.59-5.22-25.77,17.24,14.34,97.16,58.29,130.15,60.93,2.3,1.19,6.93.96,8.62,0,20.29-11.55,115.27-46.57,132.09-61.96-2.47,10.05-6.87,17.97-10.11,26.33-.01.38-.03.75-.04,1.13.33-.15.67-.31,1-.46,32.81-9.36,66.49-25.1,91.07-49.51,11.04-10.96,20.24-23.69,27.24-37.65,7.4-14.77,8.68-32.73,16.44-46.83,3.63,14.46,7.19,28.61,11.03,43.92,13.59-28.8,20.86-58.07,25.65-88.21,6.99,14.36,12.36,29.08,21.47,42.51,15.83-61.42,8.49-119.95-16.15-176.91,13.8,8.94,24.98,22.74,38.03,32.83Z"/>
  <path class="cls-1" d="m820.38,441.22c.06.43.3,1.14.14,1.24-.58.38-.69-.21-.83-.62.22-.22.45-.43.7-.62Z"/>
  <path class="cls-1" d="m162,609.48c.31.36.63.73.94,1.09-.31-.36-.63-.73-.94-1.09Z"/>
  <path class="cls-1" d="m779.29,390.32c.6.68.87,1.39.18,2.17-.3-.51-.6-1.02-.91-1.53.24-.22.49-.43.73-.65Z"/>
  <path class="cls-1" d="m561.1,670.81c-.34.15-.68.31-1.02.46.01-.38.03-.75.04-1.13.33.22.65.44.98.66Z"/>
  <path class="cls-1" d="m514.3,676.29c-.44,0-1.11.2-1.28-.01-.4-.49,1.04-.33,1.28.01Z"/>
  <path class="cls-1" d="m354.63,677.25c-.08.12-.77-.13-1.18-.21.18-.2,1.54-.39,1.18.21Z"/>
  <path class="cls-1" d="m459.33,705.77c-.18-.28-.36-.56-.54-.85.13-.05.27-.1.4-.15-.01.31-.02.62-.02.94.01,0,.16.06.16.06Z"/>
  <path class="cls-1" d="m772.82,144.91c.23.17.02.24.03-.02,0,0-.03.02-.03.02Z"/>
  <path class="cls-1" d="m427.33,89.54c-.43.04-1.1.27-1.25.09-.41-.5.13-.75.54-.95.24.29.47.58.71.87Z"/>
  <path class="cls-1" d="m409.96,709.44l-.74.07c.06-.21.12-.42.17-.63.16.22.33.44.49.66,0,0,.07-.1.07-.1Z"/>
  <path class="cls-1" d="m550.88,711.56c-.34.23-.68.46-1.02.68-.08-.12-.15-.24-.23-.36.4-.13.8-.25,1.2-.38,0,0,.04.05.04.05Z"/>
  <path class="cls-1" d="m301.93,711.53c.13.07.26.15.39.22-.14-.07-.28-.13-.42-.19,0,0,.03-.03.03-.03Z"/>
  <path class="cls-1" d="m427.87,739.51c-.06.12-.11.24-.17.37.06-.11.13-.23.19-.34,0,0-.02-.02-.02-.02Z"/>
  <path class="cls-1" d="m295.77,503.78c-12.29-43.25,19.32-78.62,45.85-108.9,26.4-30.13,51.98-55.61,94.63-53.77,39.56,1.7,61.9,28.76,87.3,55.43,13.73,14.42,28.02,29.27,37.85,46.74,11.01,19.56,10.29,36.81,8.63,58.41-10.3,32.24-41.37,36.04-70.54,26.97-13.61-4.23-26.39-11.61-37.55-20.4-5.89-4.63-11.35-9.74-16.44-15.24-2.49-2.69-8.92-13.92-12.6-13.93-3.29-.01-12,13.23-14.12,15.44-5.05,5.28-10.44,10.28-16.26,14.7-11.69,8.89-25.14,15.27-39.19,19.47-12.83,3.83-30.12,8.06-42.95,2.71-11.96-4.98-20.05-15.87-24.61-27.64Zm177.6-70.05c15.24,0,27.8-10.14,25.38-26.45-2.3-15.48-16.27-23.81-30.31-27.48-17.54-4.59-37.88-3.7-55.89-3.01-15.21.58-31.7,1.24-41.37,14.8-8.56,12-8.58,29.54,3.95,38.98,6.45,4.86,11.79,3.01,18.99,3.99,7.27.99,8.41,5.22,12.92,10.33,8.76,9.94,20.31,15.18,33.58,12.12,6.57-1.52,11.28-4.7,15.87-9.52,4.12-4.33,9.32-16.44,16.88-13.75Z"/>
  <path class="cls-1" d="m549.67,541.88c-11.72,29.52-20.64,66.5-41.48,91.09-18.67,22.04-48.18,30.48-76.24,30.34-26.61-.13-53.75-7.67-71.97-28.05-21.69-24.26-29.98-61.92-42-91.52,4.15.04,6.85,1.13,12.18,1.98,1.35.48,1.61,1.76,2.6,2.47.6,1.53,1.13,3.09,1.82,4.57,7.32,15.8,14.98,31.46,21.93,47.42,9.32,21.42,25.75,34.9,47.37,41.67,16.07,5.03,32.89,4.21,49.54,1.79,25.21-3.66,43.69-16.92,55.05-39.47,8.96-17.78,16.96-36.03,25.36-54.09.62-1.33,1.41-2.67,1.2-4.26,4.91-1.23,10.13-1.3,14.65-3.95Z"/>
  <path class="cls-1" d="m629.28,356.69c-3.09-15.12-5.69-29.45-18.7-39.45-11.11-8.53-26.52-10.53-39.99-7.47-29.01,6.59-38.68,39.1-34.37,65.48-7.84-6.71-18.32-7.94-23.73-16.75-4.66-7.58.3-16.8,3.25-24.57,9.04-23.8,27.81-41.36,53.37-45.44,22.04-3.51,41.86,5.12,56.14,21.96,6.06,7.15,11.28,15.65,14.13,24.63,2.03,6.4.33,20.62-10.1,21.61Z"/>
  <path class="cls-1" d="m327.31,374.41c6.55-30.48-9.86-66.82-44.35-67.2-29.51-.32-46.35,23.97-47.11,51.52-9.87-9.52-14.72-8.64-10.92-21.49,3.24-10.96,8.12-21.45,15.91-29.94,13.53-14.73,33.98-21.96,53.78-19.2,20.2,2.82,37.29,15.67,47.36,33.15,4.49,7.79,13.54,25.04,11.2,34.13-2.24,8.69-19.09,13.06-25.88,19.02Z"/>
  <path class="cls-1" d="m360.39,303.31c.53.69.91,1.4.14,2.17-.22-.55-.43-1.11-.65-1.66.16-.18.33-.35.51-.51Z"/>
  <path class="cls-1" d="m660.49,438.22c.36.66.92,1.68.15,1.98-1.17.47-.66-.85-.92-1.38.24-.23.49-.43.77-.61Z"/>
  <path class="cls-1" d="m631.86,429.71c.22.17.45.33.67.5-.13.08-.27.17-.4.25-.13-.22-.27-.44-.41-.65,0,0,.13-.11.13-.11Z"/>
  <path class="cls-1" d="m335.46,647.48c-.1-.06-.2-.12-.3-.18.11-.16.23-.31.34-.47.38.24.36.46-.04.65Z"/>
  <path class="cls-1" d="m584.9,331.79c17.28.06,16.32,25.23-.17,25.05-16.36-.18-17.09-25.11.17-25.05Z"/>
  <path class="cls-1" d="m282.97,330.79c17.39.01,16.56,25.66-.58,24.96-16.16-.66-16.49-24.98.58-24.96Z"/>
  <path class="cls-1" d="m238.44,419.15c.38-.06.76-.13,1.14-.19-.17.3-.34.6-.52.9-.23-.22-.44-.45-.62-.71Z"/>
  <path class="cls-1" d="m395.51,546.2c2.18,12.76-1.61,40.52,11.9,47.73,7.16,3.82,18.59,1.7,26.45,1.69,7.74,0,17.59,1.66,24.83-1.7,14.59-6.77,9.86-27.62,11.87-40.53,1.49-9.56,2.45-6.07,7.06.75,4.56,6.73,9.48,13.4,11.85,21.29,13.92,46.19-48.58,42.92-75.62,42.12-15.24-.45-29.14-6.4-35.42-21.32-7.95-18.89,7.24-35.22,17.07-50.02Z"/>
</svg>